{
  "accessors": [
    {
      "bufferView": 2,
      "componentType": 5126,
      "count": 20672,
      "max": [
        7.077610015869141,
        10.595903396606445,
        5.551196575164795
      ],
      "min": [
        -4.0127058029174805,
        2.87808895111084,
        -2.9568533897399902
      ],
      "type": "VEC3"
    },
    {
      "bufferView": 2,
      "byteOffset": 248064,
      "componentType": 5126,
      "count": 20672,
      "max": [
        1,
        1,
        1
      ],
      "min": [
        -1,
        -1,
        -1
      ],
      "type": "VEC3"
    },
    {
      "bufferView": 3,
      "componentType": 5126,
      "count": 20672,
      "max": [
        1,
        1,
        0.9999997019767761,
        1
      ],
      "min": [
        -0.9999998807907104,
        -1,
        -1,
        -1
      ],
      "type": "VEC4"
    },
    {
      "bufferView": 1,
      "componentType": 5126,
      "count": 20672,
      "max": [
        0.9999828338623047,
        1
      ],
      "min": [
        0,
        -3.8421414487455063e-17
      ],
      "type": "VEC2"
    },
    {
      "bufferView": 0,
      "componentType": 5125,
      "count": 89886,
      "type": "SCALAR"
    }
  ],
  "asset": {
    "extras": {
      "author": "ottobite (https://sketchfab.com/ottobite)",
      "license": "CC-BY-4.0 (http://creativecommons.org/licenses/by/4.0/)",
      "source": "https://sketchfab.com/3d-models/stylized-hacked-pc-sketchfabweeklychallenge-192ab9d4706f4ffaaf22f9a299289d75",
      "title": "Stylized Hacked PC #SketchfabWeeklyChallenge"
    },
    "generator": "Sketchfab-14.48.0",
    "version": "2.0"
  },
  "bufferViews": [
    {
      "buffer": 0,
      "byteLength": 359544,
      "name": "floatBufferViews",
      "target": 34963,
      "byteOffset": 0
    },
    {
      "buffer": 0,
      "byteLength": 165376,
      "byteOffset": 359544,
      "byteStride": 8,
      "name": "floatBufferViews",
      "target": 34962
    },
    {
      "buffer": 0,
      "byteLength": 496128,
      "byteOffset": 524920,
      "byteStride": 12,
      "name": "floatBufferViews",
      "target": 34962
    },
    {
      "buffer": 0,
      "byteLength": 330752,
      "byteOffset": 1021048,
      "byteStride": 16,
      "name": "floatBufferViews",
      "target": 34962
    }
  ],
  "buffers": [
    {
      "uri": "pc_data.bin",
      "byteLength": 1351800
    }
  ],
  "images": [
    {
      "uri": "pc_img0.jpg"
    },
    {
      "uri": "pc_img1.png"
    },
    {
      "uri": "pc_img2.jpg"
    },
    {
      "uri": "pc_img3.png"
    }
  ],
  "materials": [
    {
      "emissiveFactor": [
        1,
        1,
        1
      ],
      "emissiveTexture": {
        "index": 2
      },
      "name": "lambert1",
      "normalTexture": {
        "index": 3
      },
      "pbrMetallicRoughness": {
        "baseColorTexture": {
          "index": 0
        },
        "metallicRoughnessTexture": {
          "index": 1
        }
      }
    }
  ],
  "meshes": [
    {
      "name": "Final_lambert1_0",
      "primitives": [
        {
          "attributes": {
            "NORMAL": 1,
            "POSITION": 0,
            "TANGENT": 2,
            "TEXCOORD_0": 3
          },
          "indices": 4,
          "material": 0,
          "mode": 4
        }
      ]
    }
  ],
  "nodes": [
    {
      "children": [
        1
      ],
      "matrix": [
        21.276596069335938,
        0,
        0,
        0,
        0,
        4.724353368365172e-15,
        -21.276596069335938,
        0,
        0,
        21.276596069335938,
        4.724353368365172e-15,
        0,
        0,
        0,
        0,
        1
      ],
      "name": "Sketchfab_model"
    },
    {
      "children": [
        2
      ],
      "matrix": [
        0.009999999776482582,
        0,
        0,
        0,
        0,
        0,
        0.009999999776482582,
        0,
        0,
        -0.009999999776482582,
        0,
        0,
        0,
        0,
        0,
        1
      ],
      "name": "78a9345b4b264479ae16e7fcb2ccb6b9.fbx"
    },
    {
      "children": [
        3
      ],
      "name": "RootNode"
    },
    {
      "children": [
        4
      ],
      "name": "Final"
    },
    {
      "mesh": 0,
      "name": "Final_lambert1_0"
    }
  ],
  "samplers": [
    {
      "magFilter": 9729,
      "minFilter": 9987,
      "wrapS": 10497,
      "wrapT": 10497
    }
  ],
  "scene": 0,
  "scenes": [
    {
      "name": "Sketchfab_Scene",
      "nodes": [
        0
      ]
    }
  ],
  "textures": [
    {
      "sampler": 0,
      "source": 0
    },
    {
      "sampler": 0,
      "source": 1
    },
    {
      "sampler": 0,
      "source": 2
    },
    {
      "sampler": 0,
      "source": 3
    }
  ]
}